<svg width="110" height="24" viewBox="0 0 110 24" fill="none" xmlns="http://www.w3.org/2000/svg">
<path d="M12.6123 17.3311C12.6123 16.5791 12.3438 15.9932 11.8066 15.5732C11.2793 15.1533 10.3467 14.7188 9.00879 14.2695C7.6709 13.8203 6.57715 13.3857 5.72754 12.9658C2.96387 11.6084 1.58203 9.74316 1.58203 7.37012C1.58203 6.18848 1.92383 5.14844 2.60742 4.25C3.30078 3.3418 4.27734 2.63867 5.53711 2.14062C6.79688 1.63281 8.21289 1.37891 9.78516 1.37891C11.3184 1.37891 12.6904 1.65234 13.9014 2.19922C15.1221 2.74609 16.0693 3.52734 16.7432 4.54297C17.417 5.54883 17.7539 6.70117 17.7539 8H12.627C12.627 7.13086 12.3584 6.45703 11.8213 5.97852C11.2939 5.5 10.5762 5.26074 9.66797 5.26074C8.75 5.26074 8.02246 5.46582 7.48535 5.87598C6.95801 6.27637 6.69434 6.78906 6.69434 7.41406C6.69434 7.96094 6.9873 8.45898 7.57324 8.9082C8.15918 9.34766 9.18945 9.80664 10.6641 10.2852C12.1387 10.7539 13.3496 11.2617 14.2969 11.8086C16.6016 13.1367 17.7539 14.9678 17.7539 17.3018C17.7539 19.167 17.0508 20.6318 15.6445 21.6963C14.2383 22.7607 12.3096 23.293 9.8584 23.293C8.12988 23.293 6.5625 22.9854 5.15625 22.3701C3.75977 21.7451 2.70508 20.8955 1.99219 19.8213C1.28906 18.7373 0.9375 17.4922 0.9375 16.0859H6.09375C6.09375 17.2285 6.38672 18.0732 6.97266 18.6201C7.56836 19.1572 8.53027 19.4258 9.8584 19.4258C10.708 19.4258 11.377 19.2451 11.8652 18.8838C12.3633 18.5127 12.6123 17.9951 12.6123 17.3311Z" fill="#212121"/>
<path d="M24.3902 8.84961C25.4449 7.52148 26.7926 6.85742 28.4332 6.85742C30.1812 6.85742 31.4996 7.375 32.3883 8.41016C33.277 9.44531 33.7311 10.9736 33.7506 12.9951V23H28.7994V13.1123C28.7994 12.2725 28.6285 11.6572 28.2867 11.2666C27.9449 10.8662 27.3639 10.666 26.5436 10.666C25.5279 10.666 24.8102 10.9883 24.3902 11.6328V23H19.4537V0.5H24.3902V8.84961Z" fill="#212121"/>
<path d="M35.2746 14.9287C35.2746 13.3467 35.5822 11.9404 36.1975 10.71C36.8127 9.46973 37.6965 8.51758 38.8488 7.85352C40.0012 7.18945 41.3537 6.85742 42.9064 6.85742C45.2795 6.85742 47.1496 7.59473 48.5168 9.06934C49.884 10.5342 50.5676 12.5312 50.5676 15.0605V15.2363C50.5676 17.707 49.8791 19.6699 48.5021 21.125C47.135 22.5703 45.2795 23.293 42.9357 23.293C40.6799 23.293 38.8684 22.6191 37.5012 21.2715C36.134 19.9141 35.3967 18.0781 35.2893 15.7637L35.2746 14.9287ZM40.2111 15.2363C40.2111 16.7012 40.4406 17.7754 40.8996 18.459C41.3586 19.1426 42.0373 19.4844 42.9357 19.4844C44.6936 19.4844 45.592 18.1318 45.6311 15.4268V14.9287C45.6311 12.0869 44.7229 10.666 42.9064 10.666C41.2561 10.666 40.3625 11.8916 40.2258 14.3428L40.2111 15.2363Z" fill="#212121"/>
<path d="M57.8924 3.20996V7.15039H60.4998V10.5781H57.8924V17.8291C57.8924 18.4248 57.9998 18.8398 58.2146 19.0742C58.4295 19.3086 58.8543 19.4258 59.4891 19.4258C59.9773 19.4258 60.3875 19.3965 60.7195 19.3379V22.8682C59.8309 23.1514 58.9031 23.293 57.9363 23.293C56.2371 23.293 54.9822 22.8926 54.1717 22.0918C53.3611 21.291 52.9559 20.0752 52.9559 18.4443V10.5781H50.9344V7.15039H52.9559V3.20996H57.8924Z" fill="#212121"/>
<path d="M67.0629 23H62.1117V7.15039H67.0629V23ZM61.8187 3.06348C61.8187 2.36035 62.0727 1.78418 62.5805 1.33496C63.0883 0.885742 63.7475 0.661133 64.558 0.661133C65.3686 0.661133 66.0277 0.885742 66.5355 1.33496C67.0434 1.78418 67.2973 2.36035 67.2973 3.06348C67.2973 3.7666 67.0434 4.34277 66.5355 4.79199C66.0277 5.24121 65.3686 5.46582 64.558 5.46582C63.7475 5.46582 63.0883 5.24121 62.5805 4.79199C62.0727 4.34277 61.8187 3.7666 61.8187 3.06348Z" fill="#212121"/>
<path d="M74.1826 7.15039L74.3438 9.01074C75.4668 7.5752 76.9756 6.85742 78.8701 6.85742C80.8721 6.85742 82.2246 7.65332 82.9277 9.24512C84.002 7.65332 85.5547 6.85742 87.5859 6.85742C90.7988 6.85742 92.4492 8.80078 92.5371 12.6875V23H87.5859V12.9951C87.5859 12.1846 87.4492 11.5938 87.1758 11.2227C86.9023 10.8516 86.4043 10.666 85.6816 10.666C84.7051 10.666 83.9775 11.1006 83.499 11.9697L83.5137 12.1748V23H78.5625V13.0244C78.5625 12.1943 78.4307 11.5938 78.167 11.2227C77.9033 10.8516 77.4004 10.666 76.6582 10.666C75.7109 10.666 74.9883 11.1006 74.4902 11.9697V23H69.5537V7.15039H74.1826Z" fill="#212121"/>
<path d="M102.425 23.293C99.9938 23.293 98.026 22.5703 96.5221 21.125C95.0182 19.6699 94.2662 17.7803 94.2662 15.4561V15.0459C94.2662 13.4248 94.5641 11.9941 95.1598 10.7539C95.7652 9.51367 96.6441 8.55664 97.7965 7.88281C98.9488 7.19922 100.316 6.85742 101.898 6.85742C104.125 6.85742 105.882 7.55078 107.171 8.9375C108.461 10.3145 109.105 12.2383 109.105 14.709V16.6279H99.2906C99.4664 17.5166 99.8521 18.2148 100.448 18.7227C101.044 19.2305 101.815 19.4844 102.762 19.4844C104.325 19.4844 105.546 18.9375 106.424 17.8438L108.68 20.5098C108.065 21.3594 107.191 22.0381 106.058 22.5459C104.935 23.0439 103.724 23.293 102.425 23.293ZM101.869 10.666C100.423 10.666 99.5641 11.623 99.2906 13.5371H104.271V13.1562C104.291 12.3652 104.09 11.7549 103.671 11.3252C103.251 10.8857 102.65 10.666 101.869 10.666Z" fill="#212121"/>
</svg>
